<svg xmlns="http://www.w3.org/2000/svg" viewBox="0 -0.5 995 745" shape-rendering="crispEdges">
<metadata>Made with Pixels to Svg https://codepen.io/shshaw/pen/XbxvNj</metadata>
<path stroke="#ffb1bb" d="M925 0h20M925 1h20M925 2h20M925 3h20M925 4h20M780 5h5M910 5h20M935 5h5M950 5h10M780 6h5M910 6h20M935 6h5M950 6h10M780 7h5M910 7h20M935 7h5M950 7h10M780 8h5M910 8h20M935 8h5M950 8h10M780 9h5M910 9h20M935 9h5M950 9h10M650 10h30M755 10h5M780 10h15M865 10h15M890 10h10M905 10h10M930 10h5M940 10h15M960 10h15M985 10h10M650 11h30M755 11h5M780 11h15M865 11h15M890 11h10M905 11h10M930 11h5M940 11h15M960 11h15M985 11h10M650 12h30M755 12h5M780 12h15M865 12h15M890 12h10M905 12h10M930 12h5M940 12h15M960 12h15M985 12h10M650 13h30M755 13h5M780 13h15M865 13h15M890 13h10M905 13h10M930 13h5M940 13h15M960 13h15M985 13h10M650 14h30M755 14h5M780 14h15M865 14h15M890 14h10M905 14h10M930 14h5M940 14h15M960 14h15M985 14h10M650 15h5M680 15h15M745 15h15M780 15h5M800 15h15M850 15h15M890 15h20M925 15h5M935 15h10M975 15h20M650 16h5M680 16h15M745 16h15M780 16h5M800 16h15M850 16h15M890 16h20M925 16h5M935 16h10M975 16h20M650 17h5M680 17h15M745 17h15M780 17h5M800 17h15M850 17h15M890 17h20M925 17h5M935 17h10M975 17h20M650 18h5M680 18h15M745 18h15M780 18h5M800 18h15M850 18h15M890 18h20M925 18h5M935 18h10M975 18h20M650 19h5M680 19h15M745 19h15M780 19h5M800 19h15M850 19h15M890 19h20M925 19h5M935 19h10M975 19h20M650 20h5M690 20h5M740 20h10M760 20h5M780 20h5M815 20h15M835 20h20M880 20h15M925 20h10M650 21h5M690 21h5M740 21h10M760 21h5M780 21h5M815 21h15M835 21h20M880 21h15M925 21h10M650 22h5M690 22h5M740 22h10M760 22h5M780 22h5M815 22h15M835 22h20M880 22h15M925 22h10M650 23h5M690 23h5M740 23h10M760 23h5M780 23h5M815 23h15M835 23h20M880 23h15M925 23h10M650 24h5M690 24h5M740 24h10M760 24h5M780 24h5M815 24h15M835 24h20M880 24h15M925 24h10M650 25h5M690 25h5M705 25h15M735 25h5M780 25h5M825 25h5M835 25h5M650 26h5M690 26h5M705 26h15M735 26h5M780 26h5M825 26h5M835 26h5M650 27h5M690 27h5M705 27h15M735 27h5M780 27h5M825 27h5M835 27h5M650 28h5M690 28h5M705 28h15M735 28h5M780 28h5M825 28h5M835 28h5M650 29h5M690 29h5M705 29h15M735 29h5M780 29h5M825 29h5M835 29h5M590 30h5M655 30h5M695 30h10M720 30h20M765 30h5M775 30h10M825 30h5M835 30h5M590 31h5M655 31h5M695 31h10M720 31h20M765 31h5M775 31h10M825 31h5M835 31h5M590 32h5M655 32h5M695 32h10M720 32h20M765 32h5M775 32h10M825 32h5M835 32h5M590 33h5M655 33h5M695 33h10M720 33h20M765 33h5M775 33h10M825 33h5M835 33h5M590 34h5M655 34h5M695 34h10M720 34h20M765 34h5M775 34h10M825 34h5M835 34h5M590 35h10M630 35h10M655 35h5M765 35h5M775 35h10M825 35h10M590 36h10M630 36h10M655 36h5M765 36h5M775 36h10M825 36h10M590 37h10M630 37h10M655 37h5M765 37h5M775 37h10M825 37h10M590 38h10M630 38h10M655 38h5M765 38h5M775 38h10M825 38h10M590 39h10M630 39h10M655 39h5M765 39h5M775 39h10M825 39h10M555 40h10M590 40h5M600 40h5M610 40h10M625 40h20M655 40h5M765 40h5M780 40h5M555 41h10M590 41h5M600 41h5M610 41h10M625 41h20M655 41h5M765 41h5M780 41h5M555 42h10M590 42h5M600 42h5M610 42h10M625 42h20M655 42h5M765 42h5M780 42h5M555 43h10M590 43h5M600 43h5M610 43h10M625 43h20M655 43h5M765 43h5M780 43h5M555 44h10M590 44h5M600 44h5M610 44h10M625 44h20M655 44h5M765 44h5M780 44h5M540 45h5M555 45h15M590 45h5M605 45h5M615 45h5M625 45h5M640 45h5M655 45h5M765 45h5M780 45h5M540 46h5M555 46h15M590 46h5M605 46h5M615 46h5M625 46h5M640 46h5M655 46h5M765 46h5M780 46h5M540 47h5M555 47h15M590 47h5M605 47h5M615 47h5M625 47h5M640 47h5M655 47h5M765 47h5M780 47h5M540 48h5M555 48h15M590 48h5M605 48h5M615 48h5M625 48h5M640 48h5M655 48h5M765 48h5M780 48h5M540 49h5M555 49h15M590 49h5M605 49h5M615 49h5M625 49h5M640 49h5M655 49h5M765 49h5M780 49h5M510 50h10M540 50h5M560 50h35M615 50h5M625 50h5M640 50h5M660 50h5M770 50h5M780 50h5M510 51h10M540 51h5M560 51h35M615 51h5M625 51h5M640 51h5M660 51h5M770 51h5M780 51h5M510 52h10M540 52h5M560 52h35M615 52h5M625 52h5M640 52h5M660 52h5M770 52h5M780 52h5M510 53h10M540 53h5M560 53h35M615 53h5M625 53h5M640 53h5M660 53h5M770 53h5M780 53h5M510 54h10M540 54h5M560 54h35M615 54h5M625 54h5M640 54h5M660 54h5M770 54h5M780 54h5M510 55h5M520 55h10M540 55h10M560 55h5M620 55h5M640 55h5M660 55h5M775 55h5M510 56h5M520 56h10M540 56h10M560 56h5M620 56h5M640 56h5M660 56h5M775 56h5M510 57h5M520 57h10M540 57h10M560 57h5M620 57h5M640 57h5M660 57h5M775 57h5M510 58h5M520 58h10M540 58h10M560 58h5M620 58h5M640 58h5M660 58h5M775 58h5M510 59h5M520 59h10M540 59h10M560 59h5M620 59h5M640 59h5M660 59h5M775 59h5M510 60h5M530 60h5M540 60h15M560 60h5M645 60h10M665 60h5M510 61h5M530 61h5M540 61h15M560 61h5M645 61h10M665 61h5M510 62h5M530 62h5M540 62h15M560 62h5M645 62h10M665 62h5M510 63h5M530 63h5M540 63h15M560 63h5M645 63h10M665 63h5M510 64h5M530 64h5M540 64h15M560 64h5M645 64h10M665 64h5M510 65h5M535 65h10M550 65h15M655 65h5M665 65h5M510 66h5M535 66h10M550 66h15M655 66h5M665 66h5M510 67h5M535 67h10M550 67h15M655 67h5M665 67h5M510 68h5M535 68h10M550 68h15M655 68h5M665 68h5M510 69h5M535 69h10M550 69h15M655 69h5M665 69h5M510 70h5M660 70h10M510 71h5M660 71h10M510 72h5M660 72h10M510 73h5M660 73h10M510 74h5M660 74h10M510 75h5M510 76h5M510 77h5M510 78h5M510 79h5M505 80h5M505 81h5M505 82h5M505 83h5M505 84h5M455 85h15M505 85h5M455 86h15M505 86h5M455 87h15M505 87h5M455 88h15M505 88h5M455 89h15M505 89h5M450 90h5M470 90h5M480 90h10M500 90h10M450 91h5M470 91h5M480 91h10M500 91h10M450 92h5M470 92h5M480 92h10M500 92h10M450 93h5M470 93h5M480 93h10M500 93h10M450 94h5M470 94h5M480 94h10M500 94h10M450 95h5M470 95h5M480 95h25M450 96h5M470 96h5M480 96h25M450 97h5M470 97h5M480 97h25M450 98h5M470 98h5M480 98h25M450 99h5M470 99h5M480 99h25M440 100h10M475 100h5M440 101h10M475 101h5M440 102h10M475 102h5M440 103h10M475 103h5M440 104h10M475 104h5M420 105h15M440 105h5M420 106h15M440 106h5M420 107h15M440 107h5M420 108h15M440 108h5M420 109h15M440 109h5M415 110h10M415 111h10M415 112h10M415 113h10M415 114h10M415 115h5M415 116h5M415 117h5M415 118h5M415 119h5M410 120h10M410 121h10M410 122h10M410 123h10M410 124h10M405 125h10M405 126h10M405 127h10M405 128h10M405 129h10M390 130h20M390 131h20M390 132h20M390 133h20M390 134h20M395 135h5M395 136h5M395 137h5M395 138h5M395 139h5M390 145h5M390 146h5M390 147h5M390 148h5M390 149h5M385 165h10M385 166h10M385 167h10M385 168h10M385 169h10M375 170h20M375 171h20M375 172h20M375 173h20M375 174h20M375 175h15M375 176h15M375 177h15M375 178h15M375 179h15M510 225h5M510 226h5M510 227h5M510 228h5M510 229h5M500 230h10M515 230h20M500 231h10M515 231h20M500 232h10M515 232h20M500 233h10M515 233h20M500 234h10M515 234h20M475 235h25M540 235h5M475 236h25M540 236h5M475 237h25M540 237h5M475 238h25M540 238h5M475 239h25M540 239h5M540 240h5M540 241h5M540 242h5M540 243h5M540 244h5M535 245h5M535 246h5M535 247h5M535 248h5M535 249h5M480 250h15M505 250h30M480 251h15M505 251h30M480 252h15M505 252h30M480 253h15M505 253h30M480 254h15M505 254h30M480 255h5M490 255h20M480 256h5M490 256h20M480 257h5M490 257h20M480 258h5M490 258h20M480 259h5M490 259h20M460 260h25M460 261h25M460 262h25M460 263h25M460 264h25M460 265h5M460 266h5M460 267h5M460 268h5M460 269h5M425 270h35M425 271h35M425 272h35M425 273h35M425 274h35M425 275h5M425 276h5M425 277h5M425 278h5M425 279h5M430 280h5M430 281h5M430 282h5M430 283h5M430 284h5M435 285h5M435 286h5M435 287h5M435 288h5M435 289h5M440 290h5M440 291h5M440 292h5M440 293h5M440 294h5M425 295h15M425 296h15M425 297h15M425 298h15M425 299h15M415 300h10M415 301h10M415 302h10M415 303h10M415 304h10M410 305h5M410 306h5M410 307h5M410 308h5M410 309h5M415 310h5M415 311h5M415 312h5M415 313h5M415 314h5M420 315h5M420 316h5M420 317h5M420 318h5M420 319h5M415 320h5M415 321h5M415 322h5M415 323h5M415 324h5M415 325h5M415 326h5M415 327h5M415 328h5M415 329h5M420 330h5M420 331h5M420 332h5M420 333h5M420 334h5M430 340h5M430 341h5M430 342h5M430 343h5M430 344h5M430 345h5M430 346h5M430 347h5M430 348h5M430 349h5M425 350h5M425 351h5M425 352h5M425 353h5M425 354h5M425 355h10M425 356h10M425 357h10M425 358h10M425 359h10M435 360h5M435 361h5M435 362h5M435 363h5M435 364h5M440 365h5M440 366h5M440 367h5M440 368h5M440 369h5M440 370h5M440 371h5M440 372h5M440 373h5M440 374h5M440 375h15M440 376h15M440 377h15M440 378h15M440 379h15M470 390h15M470 391h15M470 392h15M470 393h15M470 394h15M515 405h10M515 406h10M515 407h10M515 408h10M515 409h10M510 410h5M525 410h5M510 411h5M525 411h5M510 412h5M525 412h5M510 413h5M525 413h5M510 414h5M525 414h5M525 415h5M525 416h5M525 417h5M525 418h5M525 419h5M520 420h10M550 420h5M520 421h10M550 421h5M520 422h10M550 422h5M520 423h10M550 423h5M520 424h10M550 424h5M520 425h10M555 425h5M520 426h10M555 426h5M520 427h10M555 427h5M520 428h10M555 428h5M520 429h10M555 429h5M520 430h5M520 431h5M520 432h5M520 433h5M520 434h5M570 435h10M570 436h10M570 437h10M570 438h10M570 439h10M585 440h5M925 440h5M585 441h5M925 441h5M585 442h5M925 442h5M585 443h5M925 443h5M585 444h5M925 444h5M590 445h5M915 445h10M590 446h5M915 446h10M590 447h5M915 447h10M590 448h5M915 448h10M590 449h5M915 449h10M590 450h5M920 450h10M945 450h5M590 451h5M920 451h10M945 451h5M590 452h5M920 452h10M945 452h5M590 453h5M920 453h10M945 453h5M590 454h5M920 454h10M945 454h5M580 455h10M815 455h10M930 455h5M580 456h10M815 456h10M930 456h5M580 457h10M815 457h10M930 457h5M580 458h10M815 458h10M930 458h5M580 459h10M815 459h10M930 459h5M575 460h5M810 460h5M935 460h5M575 461h5M810 461h5M935 461h5M575 462h5M810 462h5M935 462h5M575 463h5M810 463h5M935 463h5M575 464h5M810 464h5M935 464h5M570 465h5M805 465h5M940 465h5M970 465h5M570 466h5M805 466h5M940 466h5M970 466h5M570 467h5M805 467h5M940 467h5M970 467h5M570 468h5M805 468h5M940 468h5M970 468h5M570 469h5M805 469h5M940 469h5M970 469h5M565 470h10M800 470h5M820 470h5M945 470h5M565 471h10M800 471h5M820 471h5M945 471h5M565 472h10M800 472h5M820 472h5M945 472h5M565 473h10M800 473h5M820 473h5M945 473h5M565 474h10M800 474h5M820 474h5M945 474h5M560 475h5M800 475h5M815 475h5M945 475h10M975 475h5M560 476h5M800 476h5M815 476h5M945 476h10M975 476h5M560 477h5M800 477h5M815 477h5M945 477h10M975 477h5M560 478h5M800 478h5M815 478h5M945 478h10M975 478h5M560 479h5M800 479h5M815 479h5M945 479h10M975 479h5M810 480h5M955 480h5M975 480h5M985 480h5M810 481h5M955 481h5M975 481h5M985 481h5M810 482h5M955 482h5M975 482h5M985 482h5M810 483h5M955 483h5M975 483h5M985 483h5M810 484h5M955 484h5M975 484h5M985 484h5M550 485h10M580 485h10M600 485h25M795 485h5M820 485h5M950 485h5M975 485h10M550 486h10M580 486h10M600 486h25M795 486h5M820 486h5M950 486h5M975 486h10M550 487h10M580 487h10M600 487h25M795 487h5M820 487h5M950 487h5M975 487h10M550 488h10M580 488h10M600 488h25M795 488h5M820 488h5M950 488h5M975 488h10M550 489h10M580 489h10M600 489h25M795 489h5M820 489h5M950 489h5M975 489h10M540 490h10M575 490h5M585 490h15M620 490h10M790 490h5M820 490h5M950 490h5M975 490h5M540 491h10M575 491h5M585 491h15M620 491h10M790 491h5M820 491h5M950 491h5M975 491h5M540 492h10M575 492h5M585 492h15M620 492h10M790 492h5M820 492h5M950 492h5M975 492h5M540 493h10M575 493h5M585 493h15M620 493h10M790 493h5M820 493h5M950 493h5M975 493h5M540 494h10M575 494h5M585 494h15M620 494h10M790 494h5M820 494h5M950 494h5M975 494h5M540 495h35M590 495h10M625 495h10M780 495h10M820 495h5M950 495h5M540 496h35M590 496h10M625 496h10M780 496h10M820 496h5M950 496h5M540 497h35M590 497h10M625 497h10M780 497h10M820 497h5M950 497h5M540 498h35M590 498h10M625 498h10M780 498h10M820 498h5M950 498h5M540 499h35M590 499h10M625 499h10M780 499h10M820 499h5M950 499h5M635 500h5M780 500h5M815 500h10M945 500h5M635 501h5M780 501h5M815 501h10M945 501h5M635 502h5M780 502h5M815 502h10M945 502h5M635 503h5M780 503h5M815 503h10M945 503h5M635 504h5M780 504h5M815 504h10M945 504h5M630 505h25M700 505h15M740 505h20M775 505h5M810 505h10M920 505h5M940 505h10M630 506h25M700 506h15M740 506h20M775 506h5M810 506h10M920 506h5M940 506h10M630 507h25M700 507h15M740 507h20M775 507h5M810 507h10M920 507h5M940 507h10M630 508h25M700 508h15M740 508h20M775 508h5M810 508h10M920 508h5M940 508h10M630 509h25M700 509h15M740 509h20M775 509h5M810 509h10M920 509h5M940 509h10M655 510h10M670 510h5M685 510h5M695 510h10M710 510h5M735 510h10M760 510h5M775 510h5M810 510h35M850 510h10M895 510h10M925 510h5M940 510h5M655 511h10M670 511h5M685 511h5M695 511h10M710 511h5M735 511h10M760 511h5M775 511h5M810 511h35M850 511h10M895 511h10M925 511h5M940 511h5M655 512h10M670 512h5M685 512h5M695 512h10M710 512h5M735 512h10M760 512h5M775 512h5M810 512h35M850 512h10M895 512h10M925 512h5M940 512h5M655 513h10M670 513h5M685 513h5M695 513h10M710 513h5M735 513h10M760 513h5M775 513h5M810 513h35M850 513h10M895 513h10M925 513h5M940 513h5M655 514h10M670 514h5M685 514h5M695 514h10M710 514h5M735 514h10M760 514h5M775 514h5M810 514h35M850 514h10M895 514h10M925 514h5M940 514h5M660 515h10M675 515h5M685 515h5M710 515h25M760 515h5M770 515h10M810 515h5M840 515h10M855 515h25M890 515h5M905 515h10M660 516h10M675 516h5M685 516h5M710 516h25M760 516h5M770 516h10M810 516h5M840 516h10M855 516h25M890 516h5M905 516h10M660 517h10M675 517h5M685 517h5M710 517h25M760 517h5M770 517h10M810 517h5M840 517h10M855 517h25M890 517h5M905 517h10M660 518h10M675 518h5M685 518h5M710 518h25M760 518h5M770 518h10M810 518h5M840 518h10M855 518h25M890 518h5M905 518h10M660 519h10M675 519h5M685 519h5M710 519h25M760 519h5M770 519h10M810 519h5M840 519h10M855 519h25M890 519h5M905 519h10M755 520h20M880 520h15M755 521h20M880 521h15M755 522h20M880 522h15M755 523h20M880 523h15M755 524h20M880 524h15" />
<path stroke="#ffccbd" d="M435 105h5M435 106h5M435 107h5M435 108h5M435 109h5" />
<path stroke="rgba(255,213,170,0.023529411764705882)" d="M585 110h5M585 111h5M585 112h5M585 113h5M585 114h5M585 115h5M585 116h5M585 117h5M585 118h5M585 119h5M465 290h5M465 291h5M465 292h5M465 293h5M465 294h5M465 295h5M465 296h5M465 297h5M465 298h5M465 299h5M470 300h5M470 301h5M470 302h5M470 303h5M470 304h5M465 305h10M465 306h10M465 307h10M465 308h10M465 309h10M450 310h5M450 311h5M450 312h5M450 313h5M450 314h5M435 315h15M465 315h5M435 316h15M465 316h5M435 317h15M465 317h5M435 318h15M465 318h5M435 319h15M465 319h5" />
<path stroke="#f07476" d="M395 140h5M395 141h5M395 142h5M395 143h5M395 144h5M385 150h5M385 151h5M385 152h5M385 153h5M385 154h5M390 155h5M390 156h5M390 157h5M390 158h5M390 159h5M395 160h5M395 161h5M395 162h5M395 163h5M395 164h5M390 175h5M390 176h5M390 177h5M390 178h5M390 179h5M395 180h5M395 181h5M395 182h5M395 183h5M395 184h5M395 185h10M395 186h10M395 187h10M395 188h10M395 189h10M405 190h5M405 191h5M405 192h5M405 193h5M405 194h5M405 195h15M405 196h15M405 197h15M405 198h15M405 199h15M420 200h5M420 201h5M420 202h5M420 203h5M420 204h5M415 205h5M425 205h15M415 206h5M425 206h15M415 207h5M425 207h15M415 208h5M425 208h15M415 209h5M425 209h15M415 210h10M435 210h5M490 210h5M415 211h10M435 211h5M490 211h5M415 212h10M435 212h5M490 212h5M415 213h10M435 213h5M490 213h5M415 214h10M435 214h5M490 214h5M435 215h5M445 215h10M470 215h20M495 215h5M435 216h5M445 216h10M470 216h20M495 216h5M435 217h5M445 217h10M470 217h20M495 217h5M435 218h5M445 218h10M470 218h20M495 218h5M435 219h5M445 219h10M470 219h20M495 219h5M435 220h10M455 220h5M465 220h5M500 220h5M435 221h10M455 221h5M465 221h5M500 221h5M435 222h10M455 222h5M465 222h5M500 222h5M435 223h10M455 223h5M465 223h5M500 223h5M435 224h10M455 224h5M465 224h5M500 224h5M455 225h10M495 225h5M455 226h10M495 226h5M455 227h10M495 227h5M455 228h10M495 228h5M455 229h10M495 229h5M485 230h10M485 231h10M485 232h10M485 233h10M485 234h10M455 370h10M455 371h10M455 372h10M455 373h10M455 374h10M465 375h5M465 376h5M465 377h5M465 378h5M465 379h5M460 380h5M460 381h5M460 382h5M460 383h5M460 384h5M485 390h10M485 391h10M485 392h10M485 393h10M485 394h10M495 395h5M495 396h5M495 397h5M495 398h5M495 399h5M490 400h5M490 401h5M490 402h5M490 403h5M490 404h5M490 405h5M490 406h5M490 407h5M490 408h5M490 409h5M495 410h15M495 411h15M495 412h15M495 413h15M495 414h15M930 440h5M930 441h5M930 442h5M930 443h5M930 444h5M935 445h5M935 446h5M935 447h5M935 448h5M935 449h5M940 450h5M940 451h5M940 452h5M940 453h5M940 454h5M950 455h5M950 456h5M950 457h5M950 458h5M950 459h5M950 460h15M950 461h15M950 462h15M950 463h15M950 464h15M965 465h5M965 466h5M965 467h5M965 468h5M965 469h5M975 470h5M975 471h5M975 472h5M975 473h5M975 474h5" />
<path stroke="#ff989f" d="M535 230h5M535 231h5M535 232h5M535 233h5M535 234h5M425 335h5M425 336h5M425 337h5M425 338h5M425 339h5M465 385h5M465 386h5M465 387h5M465 388h5M465 389h5" />
<path stroke="rgba(255,174,188,0.14901960784313725)" d="M550 405h10M550 406h10M550 407h10M550 408h10M550 409h10M580 460h5M785 460h5M580 461h5M785 461h5M580 462h5M785 462h5M580 463h5M785 463h5M580 464h5M785 464h5M575 465h5M760 465h5M790 465h5M575 466h5M760 466h5M790 466h5M575 467h5M760 467h5M790 467h5M575 468h5M760 468h5M790 468h5M575 469h5M760 469h5M790 469h5M730 470h5M730 471h5M730 472h5M730 473h5M730 474h5M565 475h10M565 476h10M565 477h10M565 478h10M565 479h10M685 505h10M685 506h10M685 507h10M685 508h10M685 509h10M680 510h5M690 510h5M680 511h5M690 511h5M680 512h5M690 512h5M680 513h5M690 513h5M680 514h5M690 514h5M680 515h5M680 516h5M680 517h5M680 518h5M680 519h5" />
<path stroke="rgba(255,177,188,0.8745098039215686)" d="M540 415h10M540 416h10M540 417h10M540 418h10M540 419h10M535 420h5M535 421h5M535 422h5M535 423h5M535 424h5M530 425h10M545 425h10M530 426h10M545 426h10M530 427h10M545 427h10M530 428h10M545 428h10M530 429h10M545 429h10M525 430h5M565 430h10M525 431h5M565 431h10M525 432h5M565 432h10M525 433h5M565 433h10M525 434h5M565 434h10M820 465h5M820 466h5M820 467h5M820 468h5M820 469h5M815 480h10M815 481h10M815 482h10M815 483h10M815 484h10M690 515h5M690 516h5M690 517h5M690 518h5M690 519h5M680 520h5M680 521h5M680 522h5M680 523h5M680 524h5" />
<path stroke="rgba(255,177,187,0.8862745098039215)" d="M560 425h10M560 426h10M560 427h10M560 428h10M560 429h10M820 460h5M820 461h5M820 462h5M820 463h5M820 464h5M915 510h5M915 511h5M915 512h5M915 513h5M915 514h5" />
<path stroke="#613a16" d="M945 425h10M945 426h10M945 427h10M945 428h10M945 429h10M910 430h20M945 430h5M955 430h5M910 431h20M945 431h5M955 431h5M910 432h20M945 432h5M955 432h5M910 433h20M945 433h5M955 433h5M910 434h20M945 434h5M955 434h5M910 435h10M925 435h5M945 435h5M955 435h5M910 436h10M925 436h5M945 436h5M955 436h5M910 437h10M925 437h5M945 437h5M955 437h5M910 438h10M925 438h5M945 438h5M955 438h5M910 439h10M925 439h5M945 439h5M955 439h5M945 440h5M960 440h10M945 441h5M960 441h10M945 442h5M960 442h10M945 443h5M960 443h10M945 444h5M960 444h10M760 445h15M945 445h5M965 445h5M760 446h15M945 446h5M965 446h5M760 447h15M945 447h5M965 447h5M760 448h15M945 448h5M965 448h5M760 449h15M945 449h5M965 449h5M760 450h5M775 450h5M820 450h5M935 450h5M970 450h5M760 451h5M775 451h5M820 451h5M935 451h5M970 451h5M760 452h5M775 452h5M820 452h5M935 452h5M970 452h5M760 453h5M775 453h5M820 453h5M935 453h5M970 453h5M760 454h5M775 454h5M820 454h5M935 454h5M970 454h5M760 455h5M775 455h5M825 455h15M925 455h5M945 455h5M975 455h5M760 456h5M775 456h5M825 456h15M925 456h5M945 456h5M975 456h5M760 457h5M775 457h5M825 457h15M925 457h5M945 457h5M975 457h5M760 458h5M775 458h5M825 458h15M925 458h5M945 458h5M975 458h5M760 459h5M775 459h5M825 459h15M925 459h5M945 459h5M975 459h5M745 460h10M760 460h5M775 460h10M840 460h5M925 460h5M975 460h5M745 461h10M760 461h5M775 461h10M840 461h5M925 461h5M975 461h5M745 462h10M760 462h5M775 462h10M840 462h5M925 462h5M975 462h5M745 463h10M760 463h5M775 463h10M840 463h5M925 463h5M975 463h5M745 464h10M760 464h5M775 464h10M840 464h5M925 464h5M975 464h5M730 465h15M755 465h5M780 465h5M840 465h5M890 465h15M925 465h5M975 465h5M730 466h15M755 466h5M780 466h5M840 466h5M890 466h15M925 466h5M975 466h5M730 467h15M755 467h5M780 467h5M840 467h5M890 467h15M925 467h5M975 467h5M730 468h15M755 468h5M780 468h5M840 468h5M890 468h15M925 468h5M975 468h5M730 469h15M755 469h5M780 469h5M840 469h5M890 469h15M925 469h5M975 469h5M735 470h5M790 470h10M805 470h5M840 470h5M855 470h25M890 470h5M900 470h5M925 470h5M980 470h10M735 471h5M790 471h10M805 471h5M840 471h5M855 471h25M890 471h5M900 471h5M925 471h5M980 471h10M735 472h5M790 472h10M805 472h5M840 472h5M855 472h25M890 472h5M900 472h5M925 472h5M980 472h10M735 473h5M790 473h10M805 473h5M840 473h5M855 473h25M890 473h5M900 473h5M925 473h5M980 473h10M735 474h5M790 474h10M805 474h5M840 474h5M855 474h25M890 474h5M900 474h5M925 474h5M980 474h10M730 475h10M845 475h10M875 475h5M890 475h5M900 475h5M920 475h10M985 475h5M730 476h10M845 476h10M875 476h5M890 476h5M900 476h5M920 476h10M985 476h5M730 477h10M845 477h10M875 477h5M890 477h5M900 477h5M920 477h10M985 477h5M730 478h10M845 478h10M875 478h5M890 478h5M900 478h5M920 478h10M985 478h5M730 479h10M845 479h10M875 479h5M890 479h5M900 479h5M920 479h10M985 479h5M740 480h5M765 480h5M880 480h10M900 480h5M920 480h5M740 481h5M765 481h5M880 481h10M900 481h5M920 481h5M740 482h5M765 482h5M880 482h10M900 482h5M920 482h5M740 483h5M765 483h5M880 483h10M900 483h5M920 483h5M740 484h5M765 484h5M880 484h10M900 484h5M920 484h5M745 485h10M770 485h5M900 485h5M915 485h5M745 486h10M770 486h5M900 486h5M915 486h5M745 487h10M770 487h5M900 487h5M915 487h5M745 488h10M770 488h5M900 488h5M915 488h5M745 489h10M770 489h5M900 489h5M915 489h5M755 490h5M775 490h5M900 490h5M910 490h10M980 490h5M755 491h5M775 491h5M900 491h5M910 491h10M980 491h5M755 492h5M775 492h5M900 492h5M910 492h10M980 492h5M755 493h5M775 493h5M900 493h5M910 493h10M980 493h5M755 494h5M775 494h5M900 494h5M910 494h10M980 494h5M895 495h5M910 495h5M980 495h10M895 496h5M910 496h5M980 496h10M895 497h5M910 497h5M980 497h10M895 498h5M910 498h5M980 498h10M895 499h5M910 499h5M980 499h10M895 500h5M915 500h5M985 500h10M895 501h5M915 501h5M985 501h10M895 502h5M915 502h5M985 502h10M895 503h5M915 503h5M985 503h10M895 504h5M915 504h5M985 504h10M780 505h5M890 505h5M990 505h5M780 506h5M890 506h5M990 506h5M780 507h5M890 507h5M990 507h5M780 508h5M890 508h5M990 508h5M780 509h5M890 509h5M990 509h5M780 510h5M990 510h5M780 511h5M990 511h5M780 512h5M990 512h5M780 513h5M990 513h5M780 514h5M990 514h5M785 515h5M915 515h5M990 515h5M785 516h5M915 516h5M990 516h5M785 517h5M915 517h5M990 517h5M785 518h5M915 518h5M990 518h5M785 519h5M915 519h5M990 519h5M790 520h5M910 520h5M985 520h5M790 521h5M910 521h5M985 521h5M790 522h5M910 522h5M985 522h5M790 523h5M910 523h5M985 523h5M790 524h5M910 524h5M985 524h5M795 525h5M985 525h5M795 526h5M985 526h5M795 527h5M985 527h5M795 528h5M985 528h5M795 529h5M985 529h5M795 530h20M795 531h20M795 532h20M795 533h20M795 534h20M810 535h5M810 536h5M810 537h5M810 538h5M810 539h5M815 540h10M990 540h5M815 541h10M990 541h5M815 542h10M990 542h5M815 543h10M990 543h5M815 544h10M990 544h5M825 545h5M990 545h5M825 546h5M990 546h5M825 547h5M990 547h5M825 548h5M990 548h5M825 549h5M990 549h5M830 550h10M990 550h5M830 551h10M990 551h5M830 552h10M990 552h5M830 553h10M990 553h5M830 554h10M990 554h5M840 555h5M990 555h5M840 556h5M990 556h5M840 557h5M990 557h5M840 558h5M990 558h5M840 559h5M990 559h5M845 560h10M990 560h5M845 561h10M990 561h5M845 562h10M990 562h5M845 563h10M990 563h5M845 564h10M990 564h5M855 565h5M990 565h5M855 566h5M990 566h5M855 567h5M990 567h5M855 568h5M990 568h5M855 569h5M990 569h5M860 570h10M990 570h5M860 571h10M990 571h5M860 572h10M990 572h5M860 573h10M990 573h5M860 574h10M990 574h5M870 575h5M990 575h5M870 576h5M990 576h5M870 577h5M990 577h5M870 578h5M990 578h5M870 579h5M990 579h5M990 580h5M990 581h5M990 582h5M990 583h5M990 584h5M990 585h5M990 586h5M990 587h5M990 588h5M990 589h5M990 590h5M990 591h5M990 592h5M990 593h5M990 594h5M925 615h5M990 615h5M925 616h5M990 616h5M925 617h5M990 617h5M925 618h5M990 618h5M925 619h5M990 619h5M930 620h5M990 620h5M930 621h5M990 621h5M930 622h5M990 622h5M930 623h5M990 623h5M930 624h5M990 624h5M935 625h5M990 625h5M935 626h5M990 626h5M935 627h5M990 627h5M935 628h5M990 628h5M935 629h5M990 629h5M940 630h5M990 630h5M940 631h5M990 631h5M940 632h5M990 632h5M940 633h5M990 633h5M940 634h5M990 634h5M940 635h5M990 635h5M940 636h5M990 636h5M940 637h5M990 637h5M940 638h5M990 638h5M940 639h5M990 639h5M945 640h5M990 640h5M945 641h5M990 641h5M945 642h5M990 642h5M945 643h5M990 643h5M945 644h5M990 644h5M950 645h5M990 645h5M950 646h5M990 646h5M950 647h5M990 647h5M950 648h5M990 648h5M950 649h5M990 649h5M950 650h5M990 650h5M950 651h5M990 651h5M950 652h5M990 652h5M950 653h5M990 653h5M950 654h5M990 654h5M950 655h5M990 655h5M950 656h5M990 656h5M950 657h5M990 657h5M950 658h5M990 658h5M950 659h5M990 659h5M950 660h5M990 660h5M950 661h5M990 661h5M950 662h5M990 662h5M950 663h5M990 663h5M950 664h5M990 664h5M950 665h5M990 665h5M950 666h5M990 666h5M950 667h5M990 667h5M950 668h5M990 668h5M950 669h5M990 669h5M950 670h5M990 670h5M950 671h5M990 671h5M950 672h5M990 672h5M950 673h5M990 673h5M950 674h5M990 674h5M950 675h5M990 675h5M950 676h5M990 676h5M950 677h5M990 677h5M950 678h5M990 678h5M950 679h5M990 679h5M945 680h5M990 680h5M945 681h5M990 681h5M945 682h5M990 682h5M945 683h5M990 683h5M945 684h5M990 684h5M945 685h5M990 685h5M945 686h5M990 686h5M945 687h5M990 687h5M945 688h5M990 688h5M945 689h5M990 689h5M945 690h5M990 690h5M945 691h5M990 691h5M945 692h5M990 692h5M945 693h5M990 693h5M945 694h5M990 694h5M945 695h5M990 695h5M945 696h5M990 696h5M945 697h5M990 697h5M945 698h5M990 698h5M945 699h5M990 699h5M945 700h5M990 700h5M945 701h5M990 701h5M945 702h5M990 702h5M945 703h5M990 703h5M945 704h5M990 704h5M945 705h5M990 705h5M945 706h5M990 706h5M945 707h5M990 707h5M945 708h5M990 708h5M945 709h5M990 709h5M945 710h5M990 710h5M945 711h5M990 711h5M945 712h5M990 712h5M945 713h5M990 713h5M945 714h5M990 714h5M945 715h5M990 715h5M945 716h5M990 716h5M945 717h5M990 717h5M945 718h5M990 718h5M945 719h5M990 719h5M945 720h5M990 720h5M945 721h5M990 721h5M945 722h5M990 722h5M945 723h5M990 723h5M945 724h5M990 724h5M945 725h5M945 726h5M945 727h5M945 728h5M945 729h5M935 730h10M990 730h5M935 731h10M990 731h5M935 732h10M990 732h5M935 733h10M990 733h5M935 734h10M990 734h5M930 735h5M990 735h5M930 736h5M990 736h5M930 737h5M990 737h5M930 738h5M990 738h5M930 739h5M990 739h5M935 740h30M970 740h25M935 741h30M970 741h25M935 742h30M970 742h25M935 743h30M970 743h25M935 744h30M970 744h25" />
<path stroke="rgba(254,173,182,0.8196078431372549)" d="M580 440h5M580 441h5M580 442h5M580 443h5M580 444h5M950 465h5M950 466h5M950 467h5M950 468h5M950 469h5" />
<path stroke="#e29899" d="M920 440h5M920 441h5M920 442h5M920 443h5M920 444h5" />
<path stroke="rgba(97,58,22,0.9921568627450981)" d="M805 445h20M925 445h10M805 446h20M925 446h10M805 447h20M925 447h10M805 448h20M925 448h10M805 449h20M925 449h10M805 450h5M805 451h5M805 452h5M805 453h5M805 454h5M805 455h5M940 455h5M805 456h5M940 456h5M805 457h5M940 457h5M805 458h5M940 458h5M805 459h5M940 459h5M805 460h5M805 461h5M805 462h5M805 463h5M805 464h5M810 465h5M810 466h5M810 467h5M810 468h5M810 469h5M980 480h5M980 481h5M980 482h5M980 483h5M980 484h5M760 485h5M760 486h5M760 487h5M760 488h5M760 489h5M775 495h5M775 496h5M775 497h5M775 498h5M775 499h5M920 510h5M920 511h5M920 512h5M920 513h5M920 514h5M900 520h5M900 521h5M900 522h5M900 523h5M900 524h5M990 535h5M990 536h5M990 537h5M990 538h5M990 539h5M875 580h5M875 581h5M875 582h5M875 583h5M875 584h5M880 585h5M880 586h5M880 587h5M880 588h5M880 589h5M895 595h5M990 595h5M895 596h5M990 596h5M895 597h5M990 597h5M895 598h5M990 598h5M895 599h5M990 599h5M910 600h5M990 600h5M910 601h5M990 601h5M910 602h5M990 602h5M910 603h5M990 603h5M910 604h5M990 604h5M990 605h5M990 606h5M990 607h5M990 608h5M990 609h5M920 610h5M990 610h5M920 611h5M990 611h5M920 612h5M990 612h5M920 613h5M990 613h5M920 614h5M990 614h5M990 725h5M990 726h5M990 727h5M990 728h5M990 729h5" />
<path stroke="rgba(255,177,186,0.10196078431372549)" d="M590 455h5M590 456h5M590 457h5M590 458h5M590 459h5M910 500h5M910 501h5M910 502h5M910 503h5M910 504h5M915 505h5M915 506h5M915 507h5M915 508h5M915 509h5" />
<path stroke="#794c2f" d="M785 465h5M785 466h5M785 467h5M785 468h5M785 469h5" />
<path stroke="rgba(255,153,153,0.0392156862745098)" d="M575 470h5M575 471h5M575 472h5M575 473h5M575 474h5M575 475h5M575 476h5M575 477h5M575 478h5M575 479h5M560 480h10M560 481h10M560 482h10M560 483h10M560 484h10M685 500h15M685 501h15M685 502h15M685 503h15M685 504h15M695 505h5M695 506h5M695 507h5M695 508h5M695 509h5" />
<path stroke="rgba(128,0,0,0.00784313725490196)" d="M825 470h5M825 471h5M825 472h5M825 473h5M825 474h5M860 510h5M860 511h5M860 512h5M860 513h5M860 514h5M925 610h5M925 611h5M925 612h5M925 613h5M925 614h5M965 690h5M965 691h5M965 692h5M965 693h5M965 694h5M965 695h5M965 696h5M965 697h5M965 698h5M965 699h5M960 700h15M960 701h15M960 702h15M960 703h15M960 704h15M955 705h5M970 705h5M955 706h5M970 706h5M955 707h5M970 707h5M955 708h5M970 708h5M955 709h5M970 709h5M955 710h5M970 710h10M955 711h5M970 711h10M955 712h5M970 712h10M955 713h5M970 713h10M955 714h5M970 714h10M955 715h5M975 715h10M955 716h5M975 716h10M955 717h5M975 717h10M955 718h5M975 718h10M955 719h5M975 719h10M950 720h10M980 720h10M950 721h10M980 721h10M950 722h10M980 722h10M950 723h10M980 723h10M950 724h10M980 724h10M950 725h5M985 725h5M950 726h5M985 726h5M950 727h5M985 727h5M950 728h5M985 728h5M950 729h5M985 729h5M935 735h15M935 736h15M935 737h15M935 738h15M935 739h15" />
<path stroke="rgba(255,177,187,0.9607843137254902)" d="M555 480h5M555 481h5M555 482h5M555 483h5M555 484h5" />
<path stroke="rgba(242,168,173,0.7725490196078432)" d="M805 480h5M805 481h5M805 482h5M805 483h5M805 484h5" />
<path stroke="rgba(255,167,177,0.10196078431372549)" d="M825 480h5M825 481h5M825 482h5M825 483h5M825 484h5M825 485h5M825 486h5M825 487h5M825 488h5M825 489h5" />
<path stroke="#e06771" d="M985 485h5M985 486h5M985 487h5M985 488h5M985 489h5M985 490h5M985 491h5M985 492h5M985 493h5M985 494h5M990 495h5M990 496h5M990 497h5M990 498h5M990 499h5M925 520h5M925 521h5M925 522h5M925 523h5M925 524h5" />
<path stroke="rgba(255,205,191,0.2196078431372549)" d="M680 505h5M680 506h5M680 507h5M680 508h5M680 509h5" />
<path stroke="rgba(128,128,0,0.00784313725490196)" d="M820 505h5M820 506h5M820 507h5M820 508h5M820 509h5M900 525h5M900 526h5M900 527h5M900 528h5M900 529h5M945 530h5M945 531h5M945 532h5M945 533h5M945 534h5M940 535h5M940 536h5M940 537h5M940 538h5M940 539h5M930 540h5M930 541h5M930 542h5M930 543h5M930 544h5M875 575h5M875 576h5M875 577h5M875 578h5M875 579h5M880 580h5M880 581h5M880 582h5M880 583h5M880 584h5M885 585h10M885 586h10M885 587h10M885 588h10M885 589h10M890 590h10M890 591h10M890 592h10M890 593h10M890 594h10M900 595h15M900 596h15M900 597h15M900 598h15M900 599h15M915 600h5M915 601h5M915 602h5M915 603h5M915 604h5M920 605h5M920 606h5M920 607h5M920 608h5M920 609h5" />
<path stroke="rgba(97,58,22,0.996078431372549)" d="M900 515h5M900 516h5M900 517h5M900 518h5M900 519h5" />
<path stroke="rgba(253,171,181,0.807843137254902)" d="M925 515h5M925 516h5M925 517h5M925 518h5M925 519h5" />
<path stroke="rgba(250,165,176,0.7764705882352941)" d="M935 515h5M935 516h5M935 517h5M935 518h5M935 519h5" />
<path stroke="#824e1e" d="M905 520h5M905 521h5M905 522h5M905 523h5M905 524h5M885 590h5M885 591h5M885 592h5M885 593h5M885 594h5M890 595h5M890 596h5M890 597h5M890 598h5M890 599h5M930 740h5M965 740h5M930 741h5M965 741h5M930 742h5M965 742h5M930 743h5M965 743h5M930 744h5M965 744h5" />
<path stroke="#d95b6a" d="M940 520h5M940 521h5M940 522h5M940 523h5M940 524h5M930 525h10M990 525h5M930 526h10M990 526h5M930 527h10M990 527h5M930 528h10M990 528h5M930 529h10M990 529h5" />
<path stroke="#e06872" d="M990 520h5M990 521h5M990 522h5M990 523h5M990 524h5" />
<path stroke="rgba(98,58,23,0.9333333333333333)" d="M990 530h5M990 531h5M990 532h5M990 533h5M990 534h5M915 605h5M915 606h5M915 607h5M915 608h5M915 609h5" />
<path stroke="#91652a" d="M900 600h10M900 601h10M900 602h10M900 603h10M900 604h10" />
</svg>