<?xml version="1.0" encoding="UTF-8" standalone="no"?>
<!-- Created with Inkscape (http://www.inkscape.org/) -->

<svg
   version="1.1"
   id="svg1"
   width="995"
   height="745"
   viewBox="0 0 995 745"
   sodipodi:docname="right-tree-out.svg"
   inkscape:version="1.3.2 (091e20e, 2023-11-25)"
   xmlns:inkscape="http://www.inkscape.org/namespaces/inkscape"
   xmlns:sodipodi="http://sodipodi.sourceforge.net/DTD/sodipodi-0.dtd"
   xmlns="http://www.w3.org/2000/svg"
   xmlns:svg="http://www.w3.org/2000/svg">
  <defs
     id="defs1" />
  <sodipodi:namedview
     id="namedview1"
     pagecolor="#ffffff"
     bordercolor="#000000"
     borderopacity="0.25"
     inkscape:showpageshadow="2"
     inkscape:pageopacity="0.0"
     inkscape:pagecheckerboard="0"
     inkscape:deskcolor="#d1d1d1"
     showgrid="true"
     inkscape:zoom="0.39397913"
     inkscape:cx="731.00318"
     inkscape:cy="239.86042"
     inkscape:window-width="944"
     inkscape:window-height="688"
     inkscape:window-x="245"
     inkscape:window-y="27"
     inkscape:window-maximized="0"
     inkscape:current-layer="g1">
    <inkscape:grid
       id="grid1"
       units="px"
       originx="0"
       originy="0"
       spacingx="1"
       spacingy="1"
       empcolor="#0099e5"
       empopacity="0.30196078"
       color="#0099e5"
       opacity="0.14901961"
       empspacing="5"
       dotted="false"
       gridanglex="30"
       gridanglez="30"
       visible="true" />
  </sodipodi:namedview>
  <g
     inkscape:groupmode="layer"
     inkscape:label="Image"
     id="g1">
    <path
       style="fill:#ffb1bb;fill-opacity:0;stroke:#ffb1bb;stroke-opacity:1"
       d="m 995,10 h -10 v 5 H 975 V 10 H 960 V 5 h -10 v 5 H 940 V 5 h 5 V 0 h -20 v 5 h -15 v 5 h -5 v 5 h -5 V 10 H 890 V 20 H 880 V 10 h -15 v 5 h -15 v 5 h -15 v 15 h -5 V 20 H 815 V 15 H 795 V 10 H 785 V 5 h -5 v 25 h -5 v 10 h 5 v 15 h -5 v -5 h -5 V 30 h -5 V 20 h -5 V 10 h -5 v 5 h -10 v 5 h -5 v 5 h -5 v 5 h -15 v -5 h -15 v 5 H 695 V 15 h -15 v -5 h -30 v 20 h 5 v 20 h 5 v 10 h 5 v 10 h -5 v -5 h -5 V 60 H 645 V 40 h -5 v -5 h -10 v 5 h -5 v 15 h -5 V 40 h -10 v 5 h -5 v -5 h -5 v -5 h -5 v -5 h -5 v 20 h -20 v -5 h -5 v -5 h -10 v 10 h 5 v 15 h -5 v -5 h -5 v -5 h -5 V 45 h -5 v 20 h -5 v -5 h -5 v -5 h -10 v -5 h -10 v 30 h -5 v 10 h -5 v 5 h -10 v -5 h -10 v 10 h -5 V 90 h -5 v -5 h -15 v 5 h -5 v 10 h -10 v 5 h -20 v 5 h -5 v 10 h -5 v 5 h -5 v 5 h -15 v 5 h 5 v 10 h -5 v 5 h -5 v 5 h 5 v 5 h 5 v 5 h -10 v 5 h -10 v 10 h 20 v 10 h 10 v 10 h 15 v 5 h -5 v 10 h 10 v -5 h 10 v 15 h 10 v -5 h 10 v 10 h 10 v -5 h 5 v -5 h 20 v -5 h 5 v 5 h 5 v 5 h -5 v 5 h -10 v 5 h -10 v 5 h 25 v -5 h 10 v -5 h 5 v 5 h 25 v 10 h -5 v 5 h -30 v 5 h -10 v -5 h -15 v 10 h -20 v 10 h -35 v 10 h 5 v 5 h 5 v 5 h 5 v 5 h -15 v 5 h -10 v 5 h -5 v 5 h 5 v 5 h 5 v 5 h -5 v 10 h 5 v 5 h 5 v 5 h 5 v 10 h -5 v 10 h 10 v 5 h 5 v 15 h 15 v -5 h 10 v 5 h -5 v 5 h 5 v 5 h 5 v 5 h 25 v 5 h -5 v 10 h 5 v 5 h 20 v -5 h 10 v 10 h -5 v 15 h 10 v -5 h 10 v -10 h 10 v 5 h -5 v 5 h 20 v 5 h 5 v 5 h 10 v 5 h 10 v 10 h -10 v 5 h -5 v 5 h -5 v 5 h -5 v 5 h -5 v 5 h -5 v 5 h -5 v 5 h -10 v 10 h 35 v -5 h 5 v -5 h 5 v 5 h 5 v 5 h 10 v -10 h 20 v 5 h 5 v 5 h 10 v 5 h -5 v 5 h 25 v 5 h 5 v 5 h 10 v -5 h 5 v 5 h 5 v 5 h 5 v -5 h 10 v -5 h 10 v -5 h 5 v 10 h 25 v -5 h 10 v -5 h 15 v 10 h -5 v 5 h 20 v -5 h 5 v -5 h 5 v 5 h 5 v 5 h 5 v 10 h 15 v 5 h 5 v 5 h 10 v 5 h 5 v 5 h 10 v 5 h 5 v 5 h 10 v 5 h 5 v 5 h 10 v 5 h 5 v 5 h 5 v 5 h 5 v 5 h 5 v 5 h 10 v 5 h 15 v 5 h 5 v 5 h 5 v 5 h 5 v 5 h 5 v 5 h 5 v 10 h 5 v 5 h 5 v 35 h -5 v 50 h -10 v 5 h -5 v 10 h 65 V 10"
       id="path10" />
  </g>
</svg>
